<svg width="127" height="64" viewBox="0 0 127 64" fill="none" xmlns="http://www.w3.org/2000/svg">
<circle cx="3.30577" cy="61.4767" r="2.5233" transform="rotate(-90 3.30577 61.4767)" fill="#B8BBD2"/>
<circle cx="18.4457" cy="61.4767" r="2.5233" transform="rotate(-90 18.4457 61.4767)" fill="#B8BBD2"/>
<circle cx="33.5856" cy="61.4767" r="2.5233" transform="rotate(-90 33.5856 61.4767)" fill="#B8BBD2"/>
<circle cx="48.7252" cy="61.4767" r="2.5233" transform="rotate(-90 48.7252 61.4767)" fill="#B8BBD2"/>
<circle cx="63.8651" cy="61.4767" r="2.5233" transform="rotate(-90 63.8651 61.4767)" fill="#B8BBD2"/>
<circle cx="79.0047" cy="61.4767" r="2.5233" transform="rotate(-90 79.0047 61.4767)" fill="#B8BBD2"/>
<circle cx="94.1446" cy="61.4767" r="2.5233" transform="rotate(-90 94.1446 61.4767)" fill="#B8BBD2"/>
<circle cx="109.285" cy="61.4767" r="2.5233" transform="rotate(-90 109.285 61.4767)" fill="#B8BBD2"/>
<circle cx="124.424" cy="61.4767" r="2.5233" transform="rotate(-90 124.424 61.4767)" fill="#B8BBD2"/>
<circle cx="3.30601" cy="49.7013" r="2.5233" transform="rotate(-90 3.30601 49.7013)" fill="#B8BBD2"/>
<circle cx="18.4457" cy="49.7013" r="2.5233" transform="rotate(-90 18.4457 49.7013)" fill="#B8BBD2"/>
<circle cx="33.5856" cy="49.7013" r="2.5233" transform="rotate(-90 33.5856 49.7013)" fill="#B8BBD2"/>
<circle cx="48.7252" cy="49.7013" r="2.5233" transform="rotate(-90 48.7252 49.7013)" fill="#B8BBD2"/>
<circle cx="63.8651" cy="49.7013" r="2.5233" transform="rotate(-90 63.8651 49.7013)" fill="#B8BBD2"/>
<circle cx="79.0047" cy="49.7013" r="2.5233" transform="rotate(-90 79.0047 49.7013)" fill="#B8BBD2"/>
<circle cx="94.1446" cy="49.7013" r="2.5233" transform="rotate(-90 94.1446 49.7013)" fill="#B8BBD2"/>
<circle cx="109.285" cy="49.7013" r="2.5233" transform="rotate(-90 109.285 49.7013)" fill="#B8BBD2"/>
<circle cx="124.424" cy="49.7013" r="2.5233" transform="rotate(-90 124.424 49.7013)" fill="#B8BBD2"/>
<circle cx="3.30601" cy="37.9259" r="2.5233" transform="rotate(-90 3.30601 37.9259)" fill="#B8BBD2"/>
<circle cx="18.4457" cy="37.9259" r="2.5233" transform="rotate(-90 18.4457 37.9259)" fill="#B8BBD2"/>
<circle cx="33.5856" cy="37.9259" r="2.5233" transform="rotate(-90 33.5856 37.9259)" fill="#B8BBD2"/>
<circle cx="48.7252" cy="37.9259" r="2.5233" transform="rotate(-90 48.7252 37.9259)" fill="#B8BBD2"/>
<circle cx="63.8651" cy="37.9259" r="2.5233" transform="rotate(-90 63.8651 37.9259)" fill="#B8BBD2"/>
<circle cx="79.0047" cy="37.9259" r="2.5233" transform="rotate(-90 79.0047 37.9259)" fill="#B8BBD2"/>
<circle cx="94.1446" cy="37.9259" r="2.5233" transform="rotate(-90 94.1446 37.9259)" fill="#B8BBD2"/>
<circle cx="109.285" cy="37.9259" r="2.5233" transform="rotate(-90 109.285 37.9259)" fill="#B8BBD2"/>
<circle cx="124.424" cy="37.9259" r="2.5233" transform="rotate(-90 124.424 37.9259)" fill="#B8BBD2"/>
<circle cx="3.30601" cy="26.1505" r="2.5233" transform="rotate(-90 3.30601 26.1505)" fill="#B8BBD2"/>
<circle cx="18.4457" cy="26.1505" r="2.5233" transform="rotate(-90 18.4457 26.1505)" fill="#B8BBD2"/>
<circle cx="33.5856" cy="26.1505" r="2.5233" transform="rotate(-90 33.5856 26.1505)" fill="#B8BBD2"/>
<circle cx="48.7252" cy="26.1505" r="2.5233" transform="rotate(-90 48.7252 26.1505)" fill="#B8BBD2"/>
<circle cx="63.8651" cy="26.1505" r="2.5233" transform="rotate(-90 63.8651 26.1505)" fill="#B8BBD2"/>
<circle cx="79.0047" cy="26.1505" r="2.5233" transform="rotate(-90 79.0047 26.1505)" fill="#B8BBD2"/>
<circle cx="94.1446" cy="26.1505" r="2.5233" transform="rotate(-90 94.1446 26.1505)" fill="#B8BBD2"/>
<circle cx="109.285" cy="26.1505" r="2.5233" transform="rotate(-90 109.285 26.1505)" fill="#B8BBD2"/>
<circle cx="124.424" cy="26.1505" r="2.5233" transform="rotate(-90 124.424 26.1505)" fill="#B8BBD2"/>
<circle cx="3.30601" cy="14.3751" r="2.5233" transform="rotate(-90 3.30601 14.3751)" fill="#B8BBD2"/>
<circle cx="18.4457" cy="14.3751" r="2.5233" transform="rotate(-90 18.4457 14.3751)" fill="#B8BBD2"/>
<circle cx="33.5856" cy="14.3751" r="2.5233" transform="rotate(-90 33.5856 14.3751)" fill="#B8BBD2"/>
<circle cx="48.7252" cy="14.3751" r="2.5233" transform="rotate(-90 48.7252 14.3751)" fill="#B8BBD2"/>
<circle cx="63.8651" cy="14.3751" r="2.5233" transform="rotate(-90 63.8651 14.3751)" fill="#B8BBD2"/>
<circle cx="79.0047" cy="14.3751" r="2.5233" transform="rotate(-90 79.0047 14.3751)" fill="#B8BBD2"/>
<circle cx="94.1446" cy="14.3751" r="2.5233" transform="rotate(-90 94.1446 14.3751)" fill="#B8BBD2"/>
<circle cx="109.285" cy="14.3751" r="2.5233" transform="rotate(-90 109.285 14.3751)" fill="#B8BBD2"/>
<circle cx="124.424" cy="14.3751" r="2.5233" transform="rotate(-90 124.424 14.3751)" fill="#B8BBD2"/>
<circle cx="3.30601" cy="2.59975" r="2.5233" transform="rotate(-90 3.30601 2.59975)" fill="#B8BBD2"/>
<circle cx="18.4457" cy="2.59975" r="2.5233" transform="rotate(-90 18.4457 2.59975)" fill="#B8BBD2"/>
<circle cx="33.5856" cy="2.59975" r="2.5233" transform="rotate(-90 33.5856 2.59975)" fill="#B8BBD2"/>
<circle cx="48.7252" cy="2.59975" r="2.5233" transform="rotate(-90 48.7252 2.59975)" fill="#B8BBD2"/>
<circle cx="63.8651" cy="2.59975" r="2.5233" transform="rotate(-90 63.8651 2.59975)" fill="#B8BBD2"/>
<circle cx="79.0047" cy="2.59975" r="2.5233" transform="rotate(-90 79.0047 2.59975)" fill="#B8BBD2"/>
<circle cx="94.1446" cy="2.59975" r="2.5233" transform="rotate(-90 94.1446 2.59975)" fill="#B8BBD2"/>
<circle cx="109.285" cy="2.59975" r="2.5233" transform="rotate(-90 109.285 2.59975)" fill="#B8BBD2"/>
<circle cx="124.424" cy="2.59975" r="2.5233" transform="rotate(-90 124.424 2.59975)" fill="#B8BBD2"/>
</svg>
